<?xml version="1.0" encoding="utf-8"?>
<!-- Generator: Adobe Illustrator 27.8.0, SVG Export Plug-In . SVG Version: 6.00 Build 0)  -->
<svg version="1.1" id="Capa_1" xmlns="http://www.w3.org/2000/svg" xmlns:xlink="http://www.w3.org/1999/xlink" x="0px" y="0px"
	 viewBox="0 0 200 200" style="enable-background:new 0 0 200 200;" xml:space="preserve">
<style type="text/css">
	.st0{fill:#FFFFFF;}
	.st1{fill:#009C00;}
	.st2{fill:#005899;}
</style>
<g>
	<rect class="st0" width="200" height="200"/>
</g>
<g>
	<g>
		<path class="st1" d="M125.79,123.98l8.59-16.39h4.18l1.65,16.39h-3.33l-0.28-3.9h-5.3l-1.93,3.9H125.79z M132.7,117.16h3.74
			l-0.3-4.22c-0.03-0.44-0.06-0.9-0.09-1.35c-0.03-0.46-0.04-0.93-0.02-1.4h-0.05c-0.15,0.41-0.32,0.82-0.51,1.23
			c-0.18,0.41-0.39,0.85-0.62,1.32L132.7,117.16z"/>
		<path class="st1" d="M150.88,126.7l-2-2.49h-0.3c-1.99,0-3.5-0.57-4.53-1.71c-1.03-1.14-1.55-2.65-1.55-4.53
			c0-1.29,0.17-2.56,0.52-3.81c0.34-1.25,0.87-2.4,1.58-3.42c0.71-1.03,1.61-1.85,2.7-2.47c1.09-0.62,2.38-0.93,3.88-0.93
			c1.99,0,3.49,0.56,4.49,1.68c1,1.12,1.5,2.6,1.5,4.45c0,1.41-0.18,2.77-0.55,4.1c-0.37,1.32-0.93,2.5-1.69,3.54
			c-0.76,1.03-1.72,1.83-2.88,2.38l1.77,2.19L150.88,126.7z M148.84,121.29c0.89,0,1.7-0.32,2.43-0.95c0.73-0.63,1.32-1.53,1.76-2.7
			c0.44-1.16,0.65-2.53,0.65-4.09c0-1.01-0.23-1.82-0.7-2.42c-0.47-0.6-1.16-0.91-2.08-0.91c-0.7,0-1.36,0.2-1.96,0.61
			c-0.6,0.41-1.12,0.97-1.56,1.69c-0.44,0.72-0.78,1.54-1.02,2.47c-0.25,0.93-0.37,1.92-0.37,2.97c0,1.09,0.25,1.91,0.76,2.48
			C147.25,121.01,147.95,121.29,148.84,121.29z"/>
		<path class="st1" d="M158.48,123.98l3.47-16.39h4.57c1.33,0,2.4,0.2,3.2,0.6c0.8,0.4,1.39,0.96,1.74,1.68
			c0.36,0.72,0.54,1.55,0.54,2.5c0,1.3-0.31,2.38-0.94,3.24c-0.63,0.86-1.48,1.5-2.56,1.92c-1.08,0.42-2.29,0.63-3.64,0.63h-1.74
			l-1.22,5.83H158.48z M163.74,115.3h1.4c1.03,0,1.85-0.25,2.48-0.76c0.63-0.51,0.94-1.2,0.94-2.09c0-1.35-0.73-2.02-2.18-2.02
			h-1.61L163.74,115.3z"/>
	</g>
	<g>
		<path class="st2" d="M34.39,153.05H28v-30.63h17.55v5.32H34.39v7.89h10.38v5.32H34.39V153.05z"/>
		<path class="st2" d="M70.73,129.63v23.42h-4.89l-0.86-3h-0.34c-0.74,1.2-1.77,2.07-3.07,2.62c-1.3,0.54-2.68,0.81-4.14,0.81
			c-2.52,0-4.53-0.68-6.05-2.04c-1.52-1.36-2.27-3.54-2.27-6.54v-15.27h6.39v13.68c0,1.69,0.3,2.95,0.9,3.8
			c0.6,0.84,1.56,1.27,2.87,1.27c1.94,0,3.27-0.66,3.99-2c0.71-1.33,1.07-3.24,1.07-5.73v-11.02H70.73z"/>
		<path class="st2" d="M103.12,129.2c2.66,0,4.67,0.68,6.03,2.04c1.36,1.36,2.04,3.54,2.04,6.54v15.27h-6.39v-13.68
			c0-3.37-1.17-5.06-3.52-5.06c-1.69,0-2.89,0.6-3.6,1.8c-0.72,1.2-1.07,2.93-1.07,5.19v11.75H90.2v-13.68
			c0-3.37-1.17-5.06-3.52-5.06c-1.77,0-3,0.67-3.67,1.99c-0.67,1.33-1.01,3.24-1.01,5.73v11.02h-6.39v-23.42h4.89l0.86,3h0.34
			c0.71-1.2,1.69-2.07,2.94-2.62c1.24-0.54,2.54-0.82,3.88-0.82c1.72,0,3.17,0.28,4.35,0.84c1.19,0.56,2.11,1.42,2.77,2.6h0.56
			c0.71-1.2,1.71-2.07,2.98-2.62C100.46,129.47,101.77,129.2,103.12,129.2z"/>
		<path class="st2" d="M122.33,129.63v23.42h-6.39v-23.42H122.33z M118.89,127.26h-2.98v-2.93c0-1.91,1.55-3.46,3.46-3.46h2.98v2.93
			C122.35,125.71,120.8,127.26,118.89,127.26z"/>
		<path class="st2" d="M134.82,129.2c2.89,0,5.15,1.14,6.78,3.43h0.17l0.51-3h5.41v23.47c0,3.35-0.99,5.89-2.96,7.64
			c-1.97,1.74-4.89,2.62-8.75,2.62c-1.66,0-3.2-0.1-4.61-0.3c-1.42-0.2-2.8-0.56-4.14-1.07v-5.1c2.86,1.2,5.91,1.8,9.14,1.8
			c3.29,0,4.93-1.77,4.93-5.32v-0.47c0-0.46,0.01-0.95,0.04-1.48c0.03-0.53,0.07-0.99,0.13-1.39h-0.17
			c-0.8,1.23-1.76,2.12-2.87,2.66c-1.12,0.54-2.37,0.81-3.78,0.81c-2.77,0-4.94-1.07-6.5-3.2c-1.56-2.13-2.34-5.1-2.34-8.9
			c0-3.83,0.8-6.82,2.4-8.97C129.81,130.27,132.01,129.2,134.82,129.2z M136.83,134.39c-3,0-4.5,2.36-4.5,7.08
			c0,4.66,1.53,6.99,4.59,6.99c1.63,0,2.84-0.46,3.62-1.39c0.79-0.93,1.18-2.55,1.18-4.87v-0.77c0-2.52-0.39-4.32-1.16-5.41
			C139.79,134.94,138.55,134.39,136.83,134.39z"/>
		<path class="st2" d="M162.19,129.16c3.15,0,5.56,0.68,7.23,2.04c1.67,1.36,2.51,3.44,2.51,6.24v15.61h-4.46l-1.24-3.17h-0.17
			c-1,1.26-2.06,2.17-3.17,2.75c-1.12,0.57-2.65,0.86-4.59,0.86c-2.09,0-3.82-0.6-5.19-1.8c-1.37-1.2-2.06-3.07-2.06-5.62
			c0-2.49,0.87-4.32,2.62-5.49c1.74-1.17,4.36-1.83,7.85-1.97l4.08-0.13v-1.03c0-1.23-0.32-2.13-0.97-2.7
			c-0.64-0.57-1.54-0.86-2.68-0.86c-1.14,0-2.26,0.16-3.35,0.49c-1.09,0.33-2.17,0.74-3.26,1.22l-2.1-4.33
			c1.23-0.63,2.62-1.14,4.16-1.52C158.93,129.35,160.53,129.16,162.19,129.16z M165.58,142.2l-2.49,0.09
			c-2.06,0.06-3.49,0.43-4.29,1.12c-0.8,0.69-1.2,1.59-1.2,2.7c0,0.97,0.29,1.67,0.86,2.08c0.57,0.42,1.32,0.62,2.23,0.62
			c1.37,0,2.53-0.41,3.47-1.22c0.94-0.81,1.42-1.97,1.42-3.45V142.2z"/>
	</g>
	<g>
		<path class="st1" d="M97.31,102.02H67.37V71.9c0-19.46,15.78-35.24,35.24-35.24h29.93v30.13
			C132.55,86.24,116.77,102.02,97.31,102.02z"/>
		<path class="st0" d="M120.11,64.05l-20.62-3.79l11.76-5.97c0.21-0.11,0.42-0.25,0.61-0.42c1.2-1.06,1.3-2.89,0.24-4.08
			c-1.06-1.2-2.89-1.3-4.08-0.24l-15.5,13.75l3-12.91c0.05-0.23,0.08-0.49,0.07-0.73c-0.04-1.6-1.37-2.86-2.97-2.81
			c-1.6,0.04-2.86,1.37-2.81,2.97l0.58,20.96l-8.29-10.26c-0.15-0.18-0.33-0.36-0.53-0.51c-1.29-0.95-3.1-0.68-4.05,0.61
			c-0.95,1.29-0.68,3.1,0.61,4.05L95,77.1l-13.19,0.21c-0.24,0.01-0.49,0.04-0.73,0.11c-1.54,0.43-2.44,2.02-2.01,3.56
			c0.43,1.54,2.02,2.44,3.56,2.01l20.2-5.63l-7.95,10.52c-0.14,0.19-0.27,0.41-0.37,0.64c-0.61,1.48,0.09,3.17,1.57,3.78
			c1.48,0.61,3.17-0.09,3.78-1.57l7.9-19.15l2.97,12.92c0.05,0.23,0.14,0.47,0.26,0.69c0.74,1.42,2.49,1.96,3.9,1.22
			c1.42-0.74,1.96-2.49,1.23-3.9l-9.71-18.59l11.95,5.59c0.22,0.1,0.46,0.18,0.7,0.22c1.57,0.29,3.08-0.75,3.37-2.32
			C122.72,65.85,121.68,64.34,120.11,64.05z M107.64,71.01l-4.51,5.96l-7.64,0.12l-4.8-5.95l1.69-7.28l6.67-3.39l6.92,3.24
			L107.64,71.01z"/>
	</g>
</g>
</svg>
