<?xml version="1.0" encoding="utf-8"?>
<!-- Generator: Adobe Illustrator 27.8.0, SVG Export Plug-In . SVG Version: 6.00 Build 0)  -->
<svg version="1.1" id="Capa_1" xmlns="http://www.w3.org/2000/svg" xmlns:xlink="http://www.w3.org/1999/xlink" x="0px" y="0px"
	 viewBox="0 0 200 200" style="enable-background:new 0 0 200 200;" xml:space="preserve">
<style type="text/css">
	.st0{fill:#DE6415;}
	.st1{fill:#FFFFFF;}
</style>
<g>
	<rect class="st0" width="200" height="200"/>
</g>
<g>
	<polygon class="st1" points="77.78,77.99 77.78,60.75 35.35,60.75 35.35,86.77 30.22,86.77 20,104.11 35.35,104.11 35.35,139.25 
		52.59,139.25 52.59,104.11 68.57,104.11 68.57,86.77 52.59,86.77 52.59,77.99 	"/>
	<path class="st1" d="M117.55,97.51l-10.91,16.67h27.98c-1.18,1.44-2.55,2.76-4.15,3.95c-3.95,2.96-8.37,4.4-13.52,4.4
		c-4.06,0-7.74-0.99-11.25-3.02c-3.51-2.03-6.21-4.73-8.24-8.25c-2.03-3.5-3.02-7.21-3.02-11.34c0-4.01,0.99-7.7,3.04-11.28
		c2.03-3.55,4.71-6.25,8.2-8.24c3.51-2.01,7.2-2.99,11.27-2.99c2.54,0,4.95,0.37,7.18,1.09c2.23,0.73,4.35,1.82,6.31,3.25
		c1.95,1.43,3.56,3.02,4.78,4.72l3.31,4.63l13.51-9.52l-3.31-4.68c-3.55-5.04-8.17-9.03-13.72-11.88
		c-5.53-2.84-11.61-4.28-18.06-4.28c-5.21,0-10.26,0.99-15.01,2.94c-4.76,1.96-9.03,4.8-12.67,8.45c-3.64,3.64-6.5,7.92-8.49,12.7
		c-1.99,4.79-3,9.86-3,15.08c0,7.13,1.78,13.78,5.29,19.76c3.48,5.94,8.25,10.73,14.16,14.21c5.95,3.51,12.59,5.3,19.73,5.3
		c6.81,0,13.16-1.57,18.85-4.68c5.67-3.09,10.35-7.38,13.92-12.75c3.58-5.39,5.7-11.45,6.29-18l0.56-6.24H117.55z"/>
	<g>
		<g>
			<path class="st1" d="M162.45,113.46l17.55,0v17.25h-8.77v-8.77h-8.77L162.45,113.46z"/>
		</g>
		<g>
			<path class="st1" d="M171.23,139.19l-17.55,0v-17.25l8.77,0v8.77l8.77,0V139.19z"/>
		</g>
	</g>
</g>
</svg>
