<?xml version="1.0" encoding="utf-8"?>
<!-- Generator: Adobe Illustrator 27.8.0, SVG Export Plug-In . SVG Version: 6.00 Build 0)  -->
<svg version="1.1" id="Capa_1" xmlns="http://www.w3.org/2000/svg" xmlns:xlink="http://www.w3.org/1999/xlink" x="0px" y="0px"
	 viewBox="0 0 200 200" style="enable-background:new 0 0 200 200;" xml:space="preserve">
<style type="text/css">
	.st0{fill:#FFFFFF;}
	.st1{fill:#666666;}
</style>
<g>
	<rect class="st0" width="200" height="200"/>
</g>
<g>
	<g>
		<path class="st1" d="M52.49,108.17v26.69c0,1.92-0.37,3.7-1.12,5.29c-0.75,1.64-1.92,3.09-3.42,4.26c-2.29,1.83-5.25,2.86-8.43,3
			c-0.42-0.05-0.75-0.42-0.75-0.89v-5.48c0-0.42,0.33-0.84,0.75-0.94l0.19-0.05c1.83-0.19,5.48-1.12,5.48-5.2v-20.37h-5.48
			c-0.52,0-0.94-0.37-0.94-0.89v-5.48c0-0.52,0.42-0.94,0.94-0.94h11.66c0.47,0,0.94,0.28,1.08,0.66v0.05
			c0.05,0.05,0.05,0.09,0.05,0.19V108.17z"/>
		<path class="st1" d="M77.08,147.46c-11.1,0-20.14-9.04-20.14-20.14c0-11.1,9.04-20.14,20.14-20.14c11.1,0,20.14,9.04,20.14,20.14
			C97.21,138.42,88.18,147.46,77.08,147.46z M77.08,114.49c-7.07,0-12.83,5.76-12.83,12.83c0,7.07,5.76,12.79,12.83,12.79
			c7.07,0,12.79-5.71,12.79-12.79C89.86,120.25,84.15,114.49,77.08,114.49z"/>
		<path class="st1" d="M129.11,135.61c0,0.33-0.05,3.14-1.83,5.99c-1.64,2.72-5.01,5.9-11.9,5.9c-5.43,0-9.69-2.3-11.99-6.37
			c-1.08-1.97-1.5-3.89-1.64-5.1c0-0.09-0.05-0.19-0.05-0.28c0-0.47,0.37-0.89,0.84-0.94h0.19h5.57c0.37,0.05,0.66,0.28,0.75,0.66
			c0,0,0,0,0,0.05c0,0.05,0.05,0.09,0.05,0.14c0.09,0.56,0.33,1.36,0.8,2.06c0.98,1.64,2.81,2.48,5.48,2.48
			c2.86,0,4.68-0.8,5.67-2.39c0.66-1.08,0.75-2.25,0.75-2.25c0-1.31-0.33-2.86-2.76-3.84c-1.78-0.75-3.65-0.8-3.65-0.8
			c-0.33,0-3.32-0.05-6.42-1.26c-4.73-1.92-7.31-5.67-7.31-10.58c0-0.47,0.09-4.82,3.51-8.24c2.44-2.48,5.9-3.75,10.21-3.75
			c2.76,0,6.74,0.61,9.79,3.7c2.95,3,3.7,6.79,3.89,8.66v0.09c0,0.56-0.37,0.98-0.89,0.98h-5.48h-0.19c-0.37-0.05-0.7-0.37-0.8-0.75
			v-0.14c-0.14-0.66-0.37-1.59-0.84-2.53c-0.66-1.17-1.92-2.72-5.48-2.72c-2.29,0-3.98,0.52-5.06,1.59
			c-1.26,1.26-1.36,3.09-1.36,3.09c0,1.31,0.33,2.81,2.76,3.79c1.78,0.7,3.65,0.75,3.65,0.75c0.33,0,3.32,0.05,6.42,1.31
			C126.53,126.9,129.11,130.7,129.11,135.61z"/>
		<path class="st1" d="M161.23,146.53c0,0.52-0.42,0.94-0.89,0.94h-25.62c-0.51,0-0.94-0.42-0.94-0.94v-38.4
			c0-0.52,0.42-0.94,0.94-0.94h25.57c0.52,0,0.94,0.42,0.94,0.94v5.48c0,0.52-0.42,0.89-0.94,0.89h-19.2v9.18h19.2
			c0.51,0,0.94,0.37,0.94,0.89v5.48c0,0.51-0.42,0.94-0.94,0.94h-19.2v9.13h19.25c0.47,0,0.89,0.42,0.89,0.94V146.53z"/>
		<path class="st1" d="M41.25,171.61c-3.72-4.38-3.19-10.98,1.21-14.7c3.7-3.14,8.99-3.24,12.79-0.53l0.07,0.05
			c0.02,0.02,0.05,0.05,0.05,0.05c0.19,0.22,0.17,0.53-0.02,0.7l-2.27,1.91c-0.15,0.12-0.34,0.14-0.53,0.05
			c-2.35-1.38-5.44-1.18-7.64,0.68c-2.78,2.37-3.12,6.55-0.75,9.36c2.2,2.59,6,3.07,8.75,1.21c0,0,0.02,0,0.02-0.02
			c0.19-0.12,0.48-0.07,0.63,0.12l1.81,2.15c0.19,0.19,0.17,0.51-0.02,0.68c-0.02,0-0.02,0-0.02,0.02h-0.02v0.02
			c-0.58,0.41-1.18,0.75-1.81,1.04C49.35,176.23,44.32,175.23,41.25,171.61z"/>
		<path class="st1" d="M66.27,175.31c-5.73,0-10.4-4.67-10.4-10.4c0-5.73,4.67-10.4,10.4-10.4c5.73,0,10.4,4.67,10.4,10.4
			C76.67,170.64,72,175.31,66.27,175.31z M66.27,158.28c-3.65,0-6.63,2.97-6.63,6.62s2.97,6.6,6.63,6.6c3.65,0,6.6-2.95,6.6-6.6
			S69.92,158.28,66.27,158.28z"/>
		<path class="st1" d="M93.28,174.58c0.05,0.07,0.05,0.15,0.05,0.22c0,0.29-0.19,0.51-0.46,0.51h-3.24c-0.17,0-0.31-0.1-0.39-0.22
			l-0.05-0.07l-4.13-7.3l-0.51-0.92h-1.81v8.03c0,0.27-0.22,0.48-0.46,0.48h-2.83c-0.27,0-0.48-0.22-0.48-0.48v-11.8V155
			c0-0.24,0.22-0.46,0.48-0.46h7.06c2.2,0,4.11,0.6,5.46,1.76c1.33,1.11,2.1,2.71,2.1,4.38c0,2.54-1.81,5.13-5.32,5.9l0.12,0.22
			l0.53,0.92l3.84,6.82L93.28,174.58z M82.74,162.98c0,0,4.5,0.02,4.71,0c1.96-0.27,2.83-1.33,2.83-2.3c0-1.14-1.16-2.37-3.77-2.37
			h-3.77V162.98z"/>
		<path class="st1" d="M110.91,175.43l-10.4-11.34v10.71c0,0.27-0.19,0.48-0.46,0.48h-2.83c-0.27,0-0.48-0.22-0.48-0.48v-20.43
			l10.4,11.34V155c0-0.27,0.22-0.48,0.46-0.48h2.85c0.24,0,0.46,0.22,0.46,0.48V175.43z"/>
		<path class="st1" d="M127.98,174.82c0,0.27-0.22,0.48-0.46,0.48h-13.23c-0.27,0-0.48-0.22-0.48-0.48V155
			c0-0.27,0.22-0.48,0.48-0.48h13.2c0.27,0,0.48,0.22,0.48,0.48v2.83c0,0.27-0.22,0.46-0.48,0.46h-9.91v4.74h9.91
			c0.27,0,0.48,0.19,0.48,0.46v2.83c0,0.27-0.22,0.48-0.48,0.48h-9.91v4.72h9.94c0.24,0,0.46,0.22,0.46,0.48V174.82z"/>
		<path class="st1" d="M137.72,155.02v13.78c0,0.99-0.19,1.91-0.58,2.73c-0.39,0.85-0.99,1.6-1.77,2.2
			c-1.18,0.94-2.71,1.47-4.35,1.55c-0.22-0.02-0.39-0.22-0.39-0.46v-2.83c0-0.22,0.17-0.43,0.39-0.48l0.1-0.02
			c0.94-0.1,2.83-0.58,2.83-2.68v-10.52h-2.83c-0.27,0-0.48-0.19-0.48-0.46V155c0-0.27,0.22-0.48,0.48-0.48h6.02
			c0.24,0,0.48,0.15,0.56,0.34v0.02c0.02,0.02,0.02,0.05,0.02,0.1V155.02z"/>
		<path class="st1" d="M150.41,175.31c-5.73,0-10.4-4.67-10.4-10.4c0-5.73,4.67-10.4,10.4-10.4c5.73,0,10.4,4.67,10.4,10.4
			C160.81,170.64,156.14,175.31,150.41,175.31z M150.41,158.28c-3.65,0-6.62,2.97-6.62,6.62s2.97,6.6,6.62,6.6
			c3.65,0,6.6-2.95,6.6-6.6S154.07,158.28,150.41,158.28z"/>
	</g>
	<path class="st1" d="M161.42,98.78l0-0.16h0v0l-0.15-0.02c-0.68-0.17-14.89-3.87-29.22-13.96c-13.24-9.32-29.01-26.09-28.93-53.09
		c0.01-2.86-0.97-4.88-2.91-6.01c-3.76-2.18-10.99-0.61-19.34,4.2C70.56,35.68,60.31,45.36,52.74,56.3
		c-9.27,13.4-14.17,28.09-14.17,42.48h0.19v0.19h122.46v-0.03L161.42,98.78z M132.39,90.82c-8.31-3.3-14.93-7.14-19.66-11.43
		c-5.89-5.34-8.87-11.38-8.85-17.96c0-1.25-0.58-2.22-1.75-2.89c-5.75-3.34-24.65,1.49-39.64,10.13
		c-7.24,4.17-18.46,12.03-22.44,22.44c3.22-11.65,13.53-23.25,28.93-32.12c13.39-7.72,27.34-11.31,32.44-8.35
		c1.26,0.73,1.9,1.85,1.89,3.32c-0.02,8.02,3,15.37,8.99,21.86c4.79,5.18,11.46,9.83,19.85,13.8c6.75,3.2,13.49,5.44,18.77,6.93
		C145.68,95.31,139.04,93.46,132.39,90.82z M150.89,96.93c-5.2-0.99-11.78-2.46-18.31-4.53c-13.03-4.14-28.55-11.57-28.52-23.51
		c0-0.9-0.46-1.62-1.38-2.15c-5.78-3.35-30.16,1.73-47.16,11.52c-6.13,3.53-13.18,8.77-15.85,15.22c3.05-11.41,15.29-20.05,23-24.49
		c14.89-8.58,33.61-13.41,39.26-10.13c1.04,0.6,1.56,1.46,1.56,2.56c-0.02,6.69,3,12.83,8.98,18.25c4.77,4.32,11.42,8.19,19.78,11.5
		C138.95,93.83,145.63,95.7,150.89,96.93z M55.71,78.59c16.9-9.74,41.07-14.83,46.77-11.52c0.79,0.46,1.19,1.07,1.19,1.82
		c-0.02,5.39,3.02,10.32,9.01,14.67c4.77,3.46,11.43,6.56,19.78,9.21c6.62,2.1,13.29,3.59,18.53,4.58
		c-16.42-2.36-46.79-8.42-46.75-20.98c0-0.59-0.33-1.08-0.99-1.46c-2.82-1.64-11.91-1.23-23.17,1.03
		c-12.12,2.44-23.81,6.46-31.28,10.76c-4.76,2.74-7.86,5.56-9.3,8.41C41.57,88.08,49.18,82.36,55.71,78.59z M132.31,89.27
		c-13.09-6.21-28.67-17.37-28.62-35.32c0-1.62-0.7-2.85-2.08-3.66c-5.21-3.02-19.32,0.57-32.82,8.35
		C60.32,63.52,53.1,69.43,47.9,75.74c-3.75,4.55-6.37,9.19-7.86,13.88c4.14-17.64,19.54-32.19,34.09-40.57
		c11.49-6.62,22.25-9.3,26.79-6.67c1.46,0.85,2.2,2.23,2.2,4.1c-0.03,9.34,3,17.91,9.01,25.47c4.8,6.05,11.5,11.46,19.92,16.1
		c6.71,3.7,13.4,6.3,18.67,8.03C145.49,94.61,138.91,92.4,132.31,89.27z M49,87.03c16.79-9.67,48.53-15,54.06-11.79
		c0.54,0.31,0.8,0.68,0.8,1.13c-0.02,7.36,9.64,13.4,28.72,17.96c6.68,1.6,13.41,2.72,18.66,3.46c-16.31-1.55-46.83-5.58-46.8-13.94
		c0-0.33-0.2-0.61-0.6-0.84c-2.48-1.44-13.54-1.05-26.89,0.95c-14.85,2.23-27.42,5.69-33.61,9.25c-1.93,1.11-3.28,2.25-4.04,3.39
		C40.32,93.36,43.57,90.16,49,87.03z M132.22,87.72C119.19,80.54,103.7,67.66,103.5,47c1.14,7.6,3.97,14.67,8.45,21.11
		c4.82,6.91,11.54,13.1,19.98,18.4c6.67,4.19,13.31,7.14,18.58,9.12C145.31,93.9,138.78,91.34,132.22,87.72z M101.11,42.05
		c-4.65-2.7-15.57-0.02-27.17,6.66c-13.88,8-28.53,21.58-33.55,38.13c4.85-20.46,21.34-38.01,37.71-47.44
		c9.73-5.61,18.3-7.63,22.36-5.28c1.65,0.95,2.48,2.6,2.47,4.89c-0.01,1.88,0.09,3.72,0.27,5.54
		C102.83,43.49,102.14,42.65,101.11,42.05z M43.54,93.54c13.67-7.87,54.98-13.18,60.11-10.21c0.27,0.16,0.41,0.33,0.41,0.51
		c-0.03,8.79,30.88,12.84,47.28,14.36c-18.58-0.88-46.72-3.05-46.71-6.89c0-0.1-0.04-0.25-0.26-0.37
		c-1.82-1.06-16.83-0.54-30.29,0.56c-6.63,0.55-28.7,2.57-34.22,5.75c-0.29,0.17-0.52,0.33-0.71,0.5
		C39.63,96.35,41.1,94.94,43.54,93.54z M131.83,84.95c6.62,4.66,13.22,7.96,18.48,10.18c-5.19-1.97-11.67-4.87-18.17-8.95
		c-12.89-8.09-28.18-22.51-28.81-45.53c1.15,8.49,3.98,16.4,8.45,23.6C116.61,72.02,123.36,78.98,131.83,84.95z M81.07,30.07
		c8.23-4.74,15.32-6.31,18.95-4.2c1.81,1.05,2.72,2.96,2.72,5.67c0,1.67,0.06,3.32,0.17,4.95c-0.42-1.16-1.18-2.07-2.26-2.7
		c-4.18-2.42-12.89-0.4-22.74,5.28c-16.1,9.27-32.31,26.36-37.56,46.38C45.43,60.68,63.8,40.01,81.07,30.07z M39,98.58
		c0.18-0.54,1.19-1.45,5.26-2.53c8.08-2.15,23.63-3.78,35.48-4.59c14.82-1.01,24.1-0.86,24.51-0.16c0,1.46,2.95,2.71,9.03,3.82
		c4.72,0.86,11.29,1.64,19.55,2.3c6.74,0.54,13.52,0.92,18.76,1.16H39z"/>
</g>
</svg>
