<?xml version="1.0" encoding="UTF-8" standalone="no"?>
<!-- Generator: Adobe Illustrator 25.4.1, SVG Export Plug-In . SVG Version: 6.00 Build 0)  -->

<svg
   version="1.1"
   id="Capa_1"
   x="0px"
   y="0px"
   viewBox="0 0 180 180"
   style="enable-background:new 0 0 180 180;"
   xml:space="preserve"
   sodipodi:docname="favicon.svg"
   inkscape:version="1.3 (0e150ed6c4, 2023-07-21)"
   xmlns:inkscape="http://www.inkscape.org/namespaces/inkscape"
   xmlns:sodipodi="http://sodipodi.sourceforge.net/DTD/sodipodi-0.dtd"
   xmlns="http://www.w3.org/2000/svg"
   xmlns:svg="http://www.w3.org/2000/svg"><defs
   id="defs12" /><sodipodi:namedview
   id="namedview12"
   pagecolor="#ffffff"
   bordercolor="#000000"
   borderopacity="0.25"
   inkscape:showpageshadow="2"
   inkscape:pageopacity="0.0"
   inkscape:pagecheckerboard="0"
   inkscape:deskcolor="#d1d1d1"
   inkscape:zoom="1.4142136"
   inkscape:cx="98.287842"
   inkscape:cy="114.19774"
   inkscape:window-width="1366"
   inkscape:window-height="715"
   inkscape:window-x="-8"
   inkscape:window-y="-8"
   inkscape:window-maximized="1"
   inkscape:current-layer="Capa_1" />&#10;<style
   type="text/css"
   id="style1">&#10;	.st0{fill:#FFFFFF;}&#10;</style>&#10;<rect
   style="fill:#e2fa00;stroke-width:64.6497;stroke-dasharray:64.6497, 64.6497;paint-order:stroke markers fill;fill-opacity:1.0"
   id="rect12"
   width="180.00484"
   height="179.99815"
   x="-0.0047252625"
   y="0" /><g
   id="g12">&#10;	<g
   id="g10">&#10;		<path
   d="M15.6,165.4l0.7-0.3c0.1,0.2,0.2,0.4,0.4,0.6c0.2,0.1,0.4,0.2,0.7,0.2c0.3,0,0.5-0.1,0.6-0.2c0.2-0.1,0.2-0.3,0.2-0.6    c0-0.3-0.3-0.6-0.8-0.9c-0.1,0-0.1-0.1-0.2-0.1c-0.6-0.3-1-0.6-1.2-0.8c-0.2-0.2-0.3-0.5-0.3-0.9c0-0.4,0.2-0.8,0.5-1.1    c0.3-0.3,0.7-0.4,1.2-0.4c0.4,0,0.7,0.1,1,0.2c0.3,0.2,0.5,0.4,0.6,0.7l-0.7,0.4c-0.1-0.2-0.2-0.3-0.4-0.4    c-0.1-0.1-0.3-0.1-0.5-0.1c-0.2,0-0.4,0.1-0.6,0.2c-0.1,0.1-0.2,0.3-0.2,0.5c0,0.3,0.3,0.6,0.9,0.9c0,0,0.1,0,0.1,0.1    c0.5,0.3,0.9,0.5,1.1,0.7c0.2,0.2,0.3,0.5,0.3,0.9c0,0.5-0.2,0.9-0.5,1.2c-0.3,0.3-0.8,0.5-1.3,0.5c-0.5,0-0.9-0.1-1.2-0.3    C15.8,166.1,15.7,165.8,15.6,165.4z"
   id="path1" />&#10;		<path
   d="M36.9,163.8c0,0.4-0.1,0.8-0.2,1.1c-0.1,0.3-0.4,0.7-0.6,0.9c-0.3,0.3-0.6,0.5-1,0.6c-0.4,0.1-0.7,0.2-1.1,0.2    c-0.4,0-0.8-0.1-1.1-0.2c-0.4-0.1-0.7-0.4-1-0.6c-0.3-0.3-0.5-0.6-0.6-0.9c-0.1-0.3-0.2-0.7-0.2-1.1c0-0.4,0.1-0.8,0.2-1.1    c0.1-0.3,0.4-0.7,0.6-0.9c0.3-0.3,0.6-0.5,1-0.6c0.4-0.1,0.7-0.2,1.1-0.2c0.4,0,0.8,0.1,1.1,0.2c0.4,0.1,0.7,0.3,1,0.6    c0.3,0.3,0.5,0.6,0.6,0.9C36.8,163,36.9,163.4,36.9,163.8z M36,163.8c0-0.3-0.1-0.5-0.2-0.8c-0.1-0.2-0.2-0.5-0.4-0.7    c-0.2-0.2-0.4-0.3-0.6-0.4c-0.2-0.1-0.5-0.2-0.8-0.2c-0.3,0-0.5,0.1-0.8,0.2c-0.2,0.1-0.5,0.3-0.7,0.4c-0.2,0.2-0.3,0.4-0.4,0.7    c-0.1,0.3-0.2,0.5-0.2,0.8c0,0.3,0,0.5,0.2,0.8c0.1,0.2,0.2,0.5,0.4,0.7c0.2,0.2,0.4,0.3,0.6,0.4c0.2,0.1,0.5,0.2,0.8,0.2    c0.3,0,0.5,0,0.8-0.2c0.2-0.1,0.5-0.3,0.7-0.4c0.2-0.2,0.3-0.4,0.4-0.7C35.9,164.3,36,164,36,163.8z"
   id="path2" />&#10;		<path
   d="M49.1,166.5V161H50v4.7h2v0.8H49.1z"
   id="path3" />&#10;		<path
   d="M63.8,161h0.9v3.3c0,0.5,0.1,0.9,0.3,1.1c0.2,0.2,0.6,0.4,1,0.4c0.5,0,0.8-0.1,1-0.4c0.2-0.3,0.3-0.6,0.3-1.1V161h0.9v3.4    c0,0.7-0.2,1.3-0.6,1.7c-0.4,0.4-0.9,0.6-1.7,0.6c-0.8,0-1.3-0.2-1.7-0.6c-0.4-0.4-0.6-0.9-0.6-1.7V161z"
   id="path4" />&#10;		<path
   d="M85.1,162.3c-0.3-0.2-0.5-0.4-0.8-0.5c-0.3-0.1-0.6-0.2-0.9-0.2c-0.6,0-1.1,0.2-1.5,0.6c-0.4,0.4-0.6,0.9-0.6,1.5    c0,0.6,0.2,1.1,0.5,1.5c0.4,0.4,0.8,0.6,1.4,0.6c0.3,0,0.6-0.1,0.9-0.2c0.3-0.1,0.6-0.3,0.8-0.5v1c-0.2,0.2-0.5,0.3-0.8,0.4    c-0.3,0.1-0.6,0.1-0.9,0.1c-0.4,0-0.8-0.1-1.2-0.2c-0.4-0.1-0.7-0.3-0.9-0.6c-0.3-0.3-0.5-0.6-0.6-0.9c-0.1-0.4-0.2-0.7-0.2-1.1    c0-0.4,0.1-0.8,0.2-1.1c0.1-0.4,0.4-0.7,0.6-0.9c0.3-0.3,0.6-0.5,0.9-0.6c0.4-0.1,0.7-0.2,1.1-0.2c0.3,0,0.6,0,0.9,0.1    c0.3,0.1,0.6,0.2,0.9,0.4L85.1,162.3z"
   id="path5" />&#10;		<path
   d="M97.4,166.5V161h0.9v5.5H97.4z"
   id="path6" />&#10;		<path
   d="M116.4,163.8c0,0.4-0.1,0.8-0.2,1.1c-0.1,0.3-0.4,0.7-0.6,0.9c-0.3,0.3-0.6,0.5-1,0.6c-0.4,0.1-0.7,0.2-1.1,0.2    c-0.4,0-0.8-0.1-1.1-0.2c-0.4-0.1-0.7-0.4-1-0.6c-0.3-0.3-0.5-0.6-0.6-0.9c-0.1-0.3-0.2-0.7-0.2-1.1c0-0.4,0.1-0.8,0.2-1.1    c0.1-0.3,0.4-0.7,0.6-0.9c0.3-0.3,0.6-0.5,1-0.6c0.4-0.1,0.7-0.2,1.1-0.2c0.4,0,0.8,0.1,1.1,0.2c0.4,0.1,0.7,0.3,1,0.6    c0.3,0.3,0.5,0.6,0.6,0.9C116.3,163,116.4,163.4,116.4,163.8z M115.5,163.8c0-0.3,0-0.5-0.2-0.8c-0.1-0.2-0.2-0.5-0.4-0.7    c-0.2-0.2-0.4-0.3-0.6-0.4c-0.2-0.1-0.5-0.2-0.8-0.2c-0.3,0-0.5,0.1-0.8,0.2c-0.2,0.1-0.5,0.3-0.7,0.4c-0.2,0.2-0.3,0.4-0.4,0.7    c-0.1,0.3-0.2,0.5-0.2,0.8c0,0.3,0.1,0.5,0.2,0.8c0.1,0.2,0.2,0.5,0.4,0.7c0.2,0.2,0.4,0.3,0.7,0.4c0.2,0.1,0.5,0.2,0.8,0.2    c0.3,0,0.5,0,0.8-0.2c0.2-0.1,0.5-0.3,0.7-0.4c0.2-0.2,0.3-0.4,0.4-0.7C115.4,164.3,115.5,164,115.5,163.8z"
   id="path7" />&#10;		<path
   d="M128.6,166.5v-5.7l3.5,3.4c0.1,0.1,0.2,0.2,0.3,0.3c0.1,0.1,0.2,0.2,0.3,0.4V161h0.8v5.7l-3.6-3.4    c-0.1-0.1-0.2-0.2-0.3-0.3c-0.1-0.1-0.2-0.2-0.3-0.3v3.8H128.6z"
   id="path8" />&#10;		<path
   d="M146,166.5V161h3.1v0.8h-2.2v1.4h2.2v0.8h-2.2v1.8h2.2v0.8H146z"
   id="path9" />&#10;		<path
   d="M160.9,165.4l0.7-0.3c0.1,0.2,0.2,0.4,0.4,0.6c0.2,0.1,0.4,0.2,0.7,0.2c0.3,0,0.5-0.1,0.6-0.2c0.2-0.1,0.2-0.3,0.2-0.6    c0-0.3-0.3-0.6-0.8-0.9c-0.1,0-0.1-0.1-0.2-0.1c-0.6-0.3-1-0.6-1.2-0.8c-0.2-0.2-0.3-0.5-0.3-0.9c0-0.4,0.2-0.8,0.5-1.1    c0.3-0.3,0.7-0.4,1.2-0.4c0.4,0,0.7,0.1,1,0.2c0.3,0.2,0.5,0.4,0.6,0.7l-0.7,0.4c-0.1-0.2-0.2-0.3-0.4-0.4    c-0.1-0.1-0.3-0.1-0.5-0.1c-0.2,0-0.4,0.1-0.6,0.2c-0.1,0.1-0.2,0.3-0.2,0.5c0,0.3,0.3,0.6,0.9,0.9c0,0,0.1,0,0.1,0.1    c0.5,0.3,0.9,0.5,1.1,0.7c0.2,0.2,0.3,0.5,0.3,0.9c0,0.5-0.2,0.9-0.5,1.2c-0.3,0.3-0.8,0.5-1.3,0.5c-0.5,0-0.9-0.1-1.2-0.3    C161.2,166.1,161,165.8,160.9,165.4z"
   id="path10" />&#10;	</g>&#10;	<polygon
   points="128.9,65.6 89.9,150.8 50.4,65.6 34.5,145.6 15.5,145.6 45.5,13.3 89.9,110.7 133.8,13.3 164.5,145.6 145.3,145.6     "
   id="polygon10" />&#10;	<path
   d="M164.5,154.6H92.2c-0.3-0.9-1.2-1.5-2.2-1.5c-1,0-1.8,0.6-2.2,1.5H15.5v1.5h72.3c0.3,0.9,1.2,1.5,2.2,1.5   c1,0,1.8-0.6,2.2-1.5h72.3V154.6z"
   id="path11" />&#10;	<path
   class="st0"
   d="M91.7,155.4c0,0.9-0.8,1.7-1.7,1.7c-0.9,0-1.7-0.8-1.7-1.7c0-0.9,0.8-1.7,1.7-1.7   C90.9,153.7,91.7,154.4,91.7,155.4z"
   id="path12" />&#10;</g>&#10;</svg>
